/* XPM */
static char * dir_list_xpm[] = {
"32 32 131 2",
"  	c None",
". 	c #786E79",
"+ 	c #7A6D7A",
"@ 	c #5A5D5D",
"# 	c #515350",
"$ 	c #343636",
"% 	c #6A676A",
"& 	c #565757",
"* 	c #514B48",
"= 	c #2F3030",
"- 	c #434143",
"; 	c #5D5A5D",
"> 	c #6A666A",
", 	c #676367",
"' 	c #5F5C5F",
") 	c #3E3F40",
"! 	c #515052",
"~ 	c #494649",
"{ 	c #4A464A",
"] 	c #4B474B",
"^ 	c #3F3D3F",
"/ 	c #474447",
"( 	c #696369",
"_ 	c #4F4C4F",
": 	c #494749",
"< 	c #484548",
"[ 	c #3E3C3E",
"} 	c #454245",
"| 	c #444144",
"1 	c #4A4033",
"2 	c #765D40",
"3 	c #443B37",
"4 	c #545054",
"5 	c #565351",
"6 	c #393129",
"7 	c #5E565D",
"8 	c #746C75",
"9 	c #6B656B",
"0 	c #746C74",
"a 	c #6D686E",
"b 	c #6E686F",
"c 	c #585658",
"d 	c #706970",
"e 	c #6A646A",
"f 	c #666066",
"g 	c #504F50",
"h 	c #413F41",
"i 	c #4B464B",
"j 	c #4D494D",
"k 	c #4C474C",
"l 	c #464347",
"m 	c #424042",
"n 	c #464246",
"o 	c #474448",
"p 	c #464446",
"q 	c #3D3C3D",
"r 	c #464346",
"s 	c #57473E",
"t 	c #5C5B5C",
"u 	c #76553B",
"v 	c #564941",
"w 	c #69646A",
"x 	c #656166",
"y 	c #6D686D",
"z 	c #696569",
"A 	c #716B72",
"B 	c #625E62",
"C 	c #696469",
"D 	c #666267",
"E 	c #4C494C",
"F 	c #4E3C2F",
"G 	c #2E251E",
"H 	c #2E3E50",
"I 	c #5B5E4A",
"J 	c #494747",
"K 	c #766D76",
"L 	c #666266",
"M 	c #504E50",
"N 	c #4E4C4E",
"O 	c #3F3C3F",
"P 	c #535053",
"Q 	c #3C3A3C",
"R 	c #444244",
"S 	c #4B494B",
"T 	c #494549",
"U 	c #1C2125",
"V 	c #4F4B4F",
"W 	c #4F4A4F",
"X 	c #3F3E3F",
"Y 	c #6E686E",
"Z 	c #645F64",
"` 	c #676267",
" .	c #615E61",
"..	c #5E5B5E",
"+.	c #615E62",
"@.	c #646064",
"#.	c #636063",
"$.	c #575157",
"%.	c #6F6870",
"&.	c #6B666B",
"*.	c #5B565B",
"=.	c #5A555A",
"-.	c #716B71",
";.	c #7F6350",
">.	c #554B46",
",.	c #403E40",
"'.	c #6C4C33",
").	c #41362D",
"!.	c #585357",
"~.	c #686468",
"{.	c #5B595B",
"].	c #635E63",
"^.	c #676368",
"/.	c #4B3F39",
"(.	c #6F5645",
"_.	c #443C38",
":.	c #50494F",
"<.	c #6D4E37",
"[.	c #2D241C",
"}.	c #555255",
"|.	c #4E4A4E",
"1.	c #484649",
"2.	c #686368",
"3.	c #795B44",
"4.	c #685B57",
"5.	c #413B3F",
"6.	c #664833",
"7.	c #5B4C49",
"8.	c #7F727E",
"9.	c #686469",
"0.	c #6D676D",
"                                                                ",
"                                                                ",
"    . + @ # $                                                   ",
"    % % & * = - ; > , ' ,                                       ",
"        ) !                                                     ",
"          ~             {       ]                               ",
"          ^   /     ( _ : <     [ }                             ",
"          ~                                                     ",
"          |   1 2 3 4                                           ",
"          |   5 6 7 8 9 0 a b c d e f                           ",
"          ~                                                     ",
"          ^   g     h ^ i j k l ^ m                             ",
"          <           h n k o p q r                             ",
"          ~   s                                                 ",
"          t   u v   w x y z A B C D y                           ",
"          E   F G                                               ",
"          ~   j                                                 ",
"          <   <   H I J K L M N < O P Q R S                     ",
"          T   T     U                   V W                     ",
"          T   T                                                 ",
"          <         X   Y Z `  .B ..  +.@...#.$.%.&.*.=.-._     ",
"          T                                                     ",
"          <   ;.>.                                              ",
"          ,.  '.).!.~.{.> ].^.                                  ",
"          T   /.                                                ",
"          T   (._.:.                                            ",
"          ^   <.[.  / }.( ` , |.1.2.                            ",
"          ~                                                     ",
"          |   3.4.5.                                            ",
"          |   6.7.8.9.&.@.0.~                                   ",
"                                                                ",
"                                                                "};
