/* XPM */
static char * run_xpm[] = {
"8 8 2 1",
" 	c None",
".	c #2EF407",
"    .   ",
"    ..  ",
"    ... ",
"........",
"........",
"    ... ",
"    ..  ",
"    .   "};
