/* XPM */
static char * keyboard_xpm[] = {
"32 32 137 2",
"  	c None",
". 	c #A0A0A0",
"+ 	c #ABABAB",
"@ 	c #8E8E8E",
"# 	c #B4B4B4",
"$ 	c #808080",
"% 	c #AAAAAA",
"& 	c #919191",
"* 	c #BEBEBE",
"= 	c #BDBDBD",
"- 	c #454545",
"; 	c #656565",
"> 	c #6D6D6D",
", 	c #848484",
"' 	c #A1A1A1",
") 	c #9D9D9D",
"! 	c #797979",
"~ 	c #777777",
"{ 	c #8F8F8F",
"] 	c #ACACAC",
"^ 	c #C1C1C1",
"/ 	c #C4C4C4",
"( 	c #BABABA",
"_ 	c #9E9E9E",
": 	c #868686",
"< 	c #747474",
"[ 	c #767676",
"} 	c #6B6B6B",
"| 	c #727272",
"1 	c #989898",
"2 	c #A3A3A3",
"3 	c #C0C0C0",
"4 	c #CDCDCD",
"5 	c #D1D1D1",
"6 	c #CECECE",
"7 	c #CCCCCC",
"8 	c #BFBFBF",
"9 	c #A6A6A6",
"0 	c #8D8D8D",
"a 	c #949494",
"b 	c #828282",
"c 	c #8B8B8B",
"d 	c #7F7F7F",
"e 	c #7D7D7D",
"f 	c #7C7C7C",
"g 	c #787878",
"h 	c #4B4B4B",
"i 	c #E2E2E2",
"j 	c #E9E9E9",
"k 	c #E5E5E5",
"l 	c #DDDDDD",
"m 	c #CFCFCF",
"n 	c #BBBBBB",
"o 	c #B6B6B6",
"p 	c #8A8A8A",
"q 	c #929292",
"r 	c #959595",
"s 	c #9B9B9B",
"t 	c #888888",
"u 	c #838383",
"v 	c #7B7B7B",
"w 	c #878787",
"x 	c #737373",
"y 	c #6C6C6C",
"z 	c #E7E7E7",
"A 	c #CBCBCB",
"B 	c #A8A8A8",
"C 	c #A9A9A9",
"D 	c #9C9C9C",
"E 	c #A5A5A5",
"F 	c #A4A4A4",
"G 	c #909090",
"H 	c #979797",
"I 	c #8C8C8C",
"J 	c #818181",
"K 	c #6E6E6E",
"L 	c #757575",
"M 	c #555555",
"N 	c #939393",
"O 	c #E4E4E4",
"P 	c #B0B0B0",
"Q 	c #B2B2B2",
"R 	c #9F9F9F",
"S 	c #A2A2A2",
"T 	c #969696",
"U 	c #858585",
"V 	c #7A7A7A",
"W 	c #7E7E7E",
"X 	c #6A6A6A",
"Y 	c #6F6F6F",
"Z 	c #9A9A9A",
"` 	c #707070",
" .	c #676767",
"..	c #636363",
"+.	c #DEDEDE",
"@.	c #C2C2C2",
"#.	c #999999",
"$.	c #D0D0D0",
"%.	c #898989",
"&.	c #717171",
"*.	c #696969",
"=.	c #484848",
"-.	c #B8B8B8",
";.	c #D7D7D7",
">.	c #ADADAD",
",.	c #616161",
"'.	c #333333",
").	c #D5D5D5",
"!.	c #AFAFAF",
"~.	c #585858",
"{.	c #363636",
"].	c #171717",
"^.	c #D3D3D3",
"/.	c #A7A7A7",
"(.	c #1C1C1C",
"_.	c #3D3D3D",
":.	c #252525",
"<.	c #505050",
"[.	c #BCBCBC",
"}.	c #B9B9B9",
"|.	c #B5B5B5",
"1.	c #B3B3B3",
"2.	c #5E5E5E",
"3.	c #2A2A2A",
"4.	c #2E2E2E",
"5.	c #CACACA",
"6.	c #C5C5C5",
"7.	c #C3C3C3",
"8.	c #282828",
"9.	c #0E0E0E",
"0.	c #C7C7C7",
"a.	c #AEAEAE",
"b.	c #272727",
"c.	c #050505",
"d.	c #4A4A4A",
"e.	c #2D2D2D",
"f.	c #0B0B0B",
"                                                                ",
"                                                                ",
"                                                                ",
"                                                                ",
"                                                                ",
"                                . + @ @                         ",
"                          # $                                   ",
"                    %                           &               ",
"                *                             = -   ;           ",
"                                      > , . % ' % % ) !         ",
"                        ~ { ] ^ / ^ ( % ) _ _ : < [ < }         ",
"          | 1 2 # 3 4 5 6 7 8 9 0 0 a 0 b c d e $ f g g h       ",
"    i j k i l m * n o . c p q r s @ a t u v g w v < x x y       ",
"    = z A B + C D E 2 F . G H p _ I : v w J b c K ~ [ L > M     ",
"    N O 3 P 9 Q 2 ) R & S T T @ w @ U @ f V W X I L K y Y y     ",
"    Y i 3 9 + B ' a S q F Z J N : N p U ! W ~ f W x ` Y  ...M   ",
"      +.@.. S 1 B ) R #.0 H N & c b t J w $ ~ ~ ` ` > K  .| W   ",
"      $.m S B Z + 9 0 s p s #.%.#.U t &.b &.~ *.K c $ %.@ I t =.",
"      -.;.R >.T R R ) E 1 a H U u 0 e b &.x u 1 #.T N G L ,.'.  ",
"      F ).Z !.!.2 C q I r G 1 q &.v { G Z . ) Z H c ~.{.].      ",
"      G ^.-.s R I R F I G : , q >.+ /.E . @ ` M (.              ",
"      f 5 7 & >.N t I R . ] Q !.+ C D Y _.:.                    ",
"      <.6 7 a N B = [.}.|.1.) J 2.3.                            ",
"      4.7 5.6.7.3 = ( Q g =.8.9.                                ",
"        5.0.@.a.p } b.c.                                        ",
"        }., d.e.f.                                              ",
"                                                                ",
"                                                                ",
"                                                                ",
"                                                                ",
"                                                                ",
"                                                                "};
