/* XPM */
static char *keys[] = {
/* width height ncolors chars_per_pixel */
"32 32 599 2",
/* colors */
"   c #C6C4BF",
" . c #A7ABBB",
" X c #30507B",
" o c #E0E3E9",
" O c #DEE1E7",
" + c #C7CCD7",
" @ c #C0BEB9",
" # c #A1A7B5",
" $ c #43719E",
" % c #B0B7C7",
" & c #57718A",
" * c #416F9C",
" = c #A9B6CA",
" - c #99A2B7",
" ; c #9EA3B2",
" : c #A7B4C8",
" > c #E6EBF2",
" , c #C1C6D1",
" < c #A0B3CB",
" 1 c #ABB1C2",
" 2 c #A4B2C5",
" 3 c #9EB1C9",
" 4 c #A9AFC0",
" 5 c #4A7BA8",
" 6 c #CDD4E0",
" 7 c #5E8CB5",
" 8 c #D1D3DA",
" 9 c #B0C0D4",
" 0 c #4777A5",
" q c #F4F6F9",
" w c #DFE3EB",
" e c #AEBED2",
" r c #C9D0DC",
" t c #4C76A0",
" y c #52759C",
" u c #4575A3",
" i c #F2F4F7",
" p c #DDE1E9",
" a c #C8CEDB",
" s c #303132",
" d c #96A9C1",
" f c #8D94AB",
" g c #B6BAC6",
" h c #8B92A9",
" j c #C3CAD6",
" k c #8A90A8",
" l c #51504F",
" z c #EDEEF2",
" x c #C2C8D5",
" c c #A6B4CA",
" v c #3E4D5A",
" b c #878EA5",
" n c #4C7FAD",
" m c #939EB4",
" M c #4B4A49",
" N c #B7C3D4",
" B c #4A4A48",
" V c #929CB3",
" C c #ACB0BC",
" Z c #B5C1D2",
" A c #A0AEC4",
" S c #484846",
" D c #3B648F",
" F c #B7BECA",
" G c #47729E",
" H c #AFB9CC",
" J c #41403F",
" K c #9EA5B8",
" L c #D7DDE6",
" P c #A6B6CD",
" I c #D6DBE5",
" U c #A1A4B1",
" Y c #747371",
" T c #3E3E3C",
" R c #D5DBE4",
" E c #B9C7D9",
" W c #375981",
" Q c #363B3E",
" ! c #999FB3",
" ~ c #E7EAEF",
" ^ c #706F6D",
" / c #BCC4D2",
" ( c #DAD9D5",
" ) c #393837",
" _ c #33373B",
" ` c #A2A29E",
" ' c #3C6693",
" ] c #889BB6",
" [ c #B7BECD",
" { c #6A6967",
" } c #426485",
" | c #686765",
".  c #D9E1EB",
".. c #AEBBCE",
".X c #3C5F89",
".o c #666563",
".O c #5484B1",
".+ c #CBCED0",
".@ c #6581A4",
".# c #646361",
".$ c #5282AF",
".% c #5E80A7",
".& c #D4DBE6",
".* c #61615E",
".= c #A8B5C8",
".- c #466D96",
".; c #99A1B6",
".: c #4F80AC",
".> c #547FA7",
"., c #456B95",
".< c #A6B3C6",
".1 c #494C4D",
".2 c #393A3A",
".3 c #A0B2CA",
".4 c #959DB2",
".5 c #9EB0C8",
".6 c #5C5B59",
".7 c #B8C2D1",
".8 c #A1ADC1",
".9 c #D5D5D3",
".0 c #9FABBF",
".q c #F4F5F8",
".w c #F3F5F7",
".e c #9EA9BE",
".r c #4574A2",
".t c #ACBBCF",
".y c #303031",
".u c #C1CCDD",
".i c #AFBCC8",
".p c #4372A0",
".a c #878683",
".s c #3C4D61",
".d c #B6BABB",
".f c #EAEBEE",
".g c #9BA0B1",
".h c #83827F",
".j c #959FB5",
".k c #38587E",
".l c #B9C4D5",
".z c #81807D",
".x c #B7C2D3",
".c c #B4B3AF",
".v c #BABFCC",
".b c #4C77A2",
".n c #3B454C",
".m c #5A89B3",
".M c #3A618D",
".N c #F0F3F7",
".B c #A1A8BA",
".V c #797875",
".C c #3E4245",
".Z c #AABBD0",
".A c #42413F",
".S c #777673",
".D c #ECEFF3",
".F c #C2C9D7",
".G c #A2A5B1",
".H c #73726F",
".J c #A9B4C5",
".K c #A3B3C9",
".L c #A8B2C4",
".P c #D2D6E0",
".I c #DBDAD5",
".U c #BCC3D1",
".Y c #9EADC4",
".T c #617992",
".R c #658BAD",
".E c #3B454F",
".W c #9CABC2",
".Q c #9196AA",
".! c #4775A0",
".~ c #7E97B5",
".^ c #B3BBC8",
"./ c #4C729B",
".( c #9C9B97",
".) c #5585B1",
"._ c #98A7BE",
".` c #364E6B",
".' c #999794",
".] c #A4B7CD",
".[ c #CECCC8",
".{ c #A3B5CC",
".} c #363C40",
".| c #BDC7D5",
"X  c #969591",
"X. c #BDC5D5",
"XX c #A1B3CA",
"Xo c #3F6B98",
"XO c #A7B2C6",
"X+ c #8BA0BB",
"X@ c #8F9294",
"X# c #BBC3D3",
"X$ c #C8C6C2",
"X% c #959CB1",
"X& c #B3C2D5",
"X* c #363736",
"X= c #9DAFC6",
"X- c #F7F8FA",
"X; c #908F8B",
"X: c #CCD2DD",
"X> c #F5F6F8",
"X, c #C4C2BE",
"X< c #8D8B88",
"X1 c #C2C0BC",
"X2 c #DCDFE6",
"X3 c #43719F",
"X4 c #333F4A",
"X5 c #DADDE4",
"X6 c #476178",
"X7 c #D3DCE7",
"X8 c #375C86",
"X9 c #8A90A6",
"X0 c #878582",
"Xq c #C7CBCE",
"Xw c #A1B5CD",
"Xe c #888EA4",
"Xr c #97A0B6",
"Xt c #344962",
"Xy c #6E90B2",
"Xu c #959EB4",
"Xi c #B8B6B2",
"Xp c #817F7C",
"Xa c #4A7BA9",
"Xs c #B6B4B0",
"Xd c #353738",
"Xf c #E0E5ED",
"Xg c #BBC0CC",
"Xh c #CAD2DE",
"Xj c #B9C0CA",
"Xk c #3C556D",
"Xl c #C9D0DD",
"Xz c #B2B0AC",
"Xx c #ACBCD1",
"Xc c #556575",
"Xv c #9CA8BE",
"Xb c #385E8A",
"Xn c #7E94B1",
"Xm c #EEF0F4",
"XM c #C3CAD7",
"XN c #ACAAA6",
"XB c #506170",
"XV c #C1C8D5",
"XC c #C0C6D4",
"XZ c #C3C7CD",
"XA c #CCD6E3",
"XS c #DBD9D4",
"XD c #34373A",
"XF c #638DB4",
"XG c #919CB3",
"XH c #D9D7D2",
"XJ c #59789D",
"XK c #3D6692",
"XL c #C9D2E0",
"XP c #B9C0CD",
"XI c #B8C0CC",
"XU c #476288",
"XY c #D5D3CE",
"XT c #5888B3",
"XR c #D3D1CC",
"XE c #C3CCDA",
"XW c #AEB9CC",
"XQ c #515253",
"X! c #D1CFCA",
"X~ c #91A7C0",
"X^ c #5484AF",
"X/ c #ACB7CA",
"X( c #97A4BC",
"X) c #CFCDC8",
"X_ c #B0B6C4",
"X` c #5180AC",
"X' c #9AA1B5",
"X] c #8DA3BC",
"X[ c #A6A6A3",
"X{ c #999FB4",
"X} c #CBC9C4",
"X| c #A1B2C9",
"o  c #A7B1C5",
"o. c #969DB1",
"oX c #BEC3CB",
"oo c #D8D7D4",
"oO c #959BB0",
"o+ c #F8F9FA",
"o@ c #B2C1D3",
"o# c #A3ADC1",
"o$ c #50575F",
"o% c #31517C",
"o& c #C6D2E0",
"o* c #F6F7F8",
"o= c #E0E2E9",
"o- c #A5AAB9",
"o; c #DDE0E6",
"o: c #C8CDD8",
"o> c #8D93A8",
"o, c #C0CADA",
"o< c #B0B8C7",
"o1 c #C9CCCF",
"o2 c #363D42",
"o3 c #466D97",
"o4 c #A6B3C7",
"o5 c #ACB2C3",
"o6 c #979FB5",
"o7 c #597CA3",
"o8 c #A4B1C5",
"o9 c #AAB0C1",
"o0 c #BEC3CE",
"oq c #363838",
"ow c #A3AFC4",
"oe c #5B5B59",
"or c #939BB1",
"ot c #353637",
"oy c #CCD3DF",
"ou c #BAC1CA",
"oi c #CAD1DD",
"op c #B5BECF",
"oa c #AEBDD2",
"os c #F3F5F8",
"od c #CED0D7",
"of c #8F97AD",
"og c #8E97AC",
"oh c #565554",
"oj c #375D88",
"ok c #C2C9D5",
"ol c #ECEDF1",
"oz c #9DA2B4",
"ox c #4F4F4D",
"oc c #91A2BC",
"ov c #EAEBEF",
"ob c #959FB6",
"on c #4C4B4A",
"om c #CDD7E3",
"oM c #8D9EB8",
"oN c #A8B0C2",
"oB c #A1AFC5",
"oV c #DFE6EE",
"oC c #484746",
"oZ c #B3BED0",
"oA c #464544",
"oS c #325079",
"oD c #9CA9C0",
"oF c #3F6089",
"oG c #434341",
"oH c #C5CDDB",
"oJ c #6984A5",
"oK c #3D5E87",
"oL c #C3CBD9",
"oP c #586E91",
"oI c #403F3E",
"oU c #757472",
"oY c #EBEFF3",
"oT c #AEB9C1",
"oR c #BFC7D5",
"oE c #95A1B9",
"oW c #323B44",
"oQ c #517FAB",
"o! c #3C3B3A",
"o~ c #D3D8E2",
"o^ c #BBC3D1",
"o/ c #A6B0C3",
"o( c #ACAFBF",
"o) c #849FBC",
"o_ c #E5E7ED",
"o` c #D9D8D4",
"o' c #B4C2D4",
"o] c #AAAFBD",
"o[ c #516980",
"o{ c #303438",
"o} c #343332",
"o| c #9BABC2",
"O  c #CBD0DA",
"O. c #B6BDCC",
"OX c #AEBACE",
"Oo c #416184",
"OO c #98A7BF",
"O+ c #8294B0",
"O@ c #B2B9C8",
"O# c #656462",
"O$ c #BABDBC",
"O% c #CBCDD0",
"O& c #9A9996",
"O* c #8D92A7",
"O= c #ABB8CB",
"O- c #C5CAD4",
"O; c #434F5B",
"O: c #395C86",
"O> c #52708E",
"O, c #5181AE",
"O< c #4D6D93",
"O1 c #61605E",
"O2 c #406D9A",
"O3 c #ADB3C3",
"O4 c #A1B3CB",
"O5 c #E6EBF1",
"O6 c #3F6B99",
"O7 c #BBC5D4",
"O8 c #C1C4D0",
"O9 c #6E6E6E",
"O0 c #AFB2BB",
"Oq c #587BA1",
"Ow c #9DAFC7",
"Oe c #4A6A86",
"Or c #939AB0",
"Ot c #6B8AAD",
"Oy c #F6F8FA",
"Ou c #595856",
"Oi c #DFE3EA",
"Op c #575654",
"Oa c #4675A3",
"Os c #B8BCC7",
"Od c #9DA8BD",
"Of c #8196B2",
"Og c #C1CDDD",
"Oh c #4473A1",
"Oj c #8D94AA",
"Ok c #8A8986",
"Ol c #C6CCD8",
"Oz c #EFF0F3",
"Ox c #8B92A8",
"Oc c #888784",
"Ov c #C4CAD6",
"Ob c #8A90A7",
"On c #C7CBCF",
"Om c #55718A",
"OM c #365A86",
"ON c #AFB8BE",
"OB c #446C97",
"OV c #848380",
"OC c #B9B8B4",
"OZ c #CFD8E4",
"OA c #527EA8",
"OS c #CED8E3",
"OD c #82817E",
"OF c #CDD6E2",
"OG c #807F7C",
"OH c #497BA9",
"OJ c #53799F",
"OK c #B3B2AE",
"OL c #53779F",
"OP c #B9C0CB",
"OI c #474644",
"OU c #4677A6",
"OY c #313335",
"OT c #C8D0DD",
"OR c #9DAAC0",
"OE c #D1D2D2",
"OW c #7A7976",
"OQ c #ABBCD1",
"O! c #C6CEDB",
"O~ c #39608C",
"O^ c #A1A7BA",
"O/ c #787774",
"O( c #ADACA8",
"O) c #9EA5B7",
"O_ c #98A4BB",
"O` c #9DA5B6",
"O' c #ECEEF3",
"O] c #97A4BA",
"O[ c #5A81A9",
"O{ c #EBEEF2",
"O} c #CACCCB",
"O| c #AAA8A5",
"+  c #747370",
"+. c #7393B1",
"+X c #A9A8A4",
"+o c #FFFFFF",
"+O c #AAB5C6",
"++ c #BFC6D4",
"+@ c #A7A6A2",
"+# c #B8C5D7",
"+$ c #D3D7E1",
"+% c #416A97",
"+& c #DBD9D5",
"+* c #ACB0BE",
"+= c #587C9D",
"+- c #BAC0CF",
"+; c #959BAE",
"+: c #CED3DC",
"+> c #B9C0CE",
"+, c #A1A09C",
"+< c #7288A6",
"+1 c #A09E9B",
"+2 c #4976A2",
"+3 c #B6BCCB",
"+4 c #9E9C99",
"+5 c #9AA8C0",
"+6 c #D3D1CD",
"+7 c #CCCED0",
"+8 c #393F43",
"+9 c #BFC8D7",
"+0 c #426E9B",
"+q c #989693",
"+w c #A9B5C8",
"+e c #CDCBC7",
"+r c #CCCBC6",
"+t c #A2B4CB",
"+y c #D2D9E3",
"+u c #406C99",
"+i c #A7B3C6",
"+p c #E6EAF0",
"+a c #D1D7E2",
"+s c #A0B2C9",
"+d c #BBC4D3",
"+f c #3E6A97",
"+g c #94928F",
"+h c #E4E8EE",
"+j c #9EB0C7",
"+k c #B9C2D1",
"+l c #BCC5CA",
"+z c #F8F9FB",
"+x c #C7C5C1",
"+c c #32537E",
"+v c #4A7AA6",
"+b c #9DAEC6",
"+n c #CDD3DE",
"+m c #C6C5C0",
"+M c #CBD1DC",
"+N c #426687",
"+B c #C3C1BD",
"+V c #AEBDD0",
"+C c #C9CFDA",
"+Z c #B4BCCC",
"+A c #9FA9BE",
"+S c #A4AAB9",
"+D c #C8CFD9",
"+F c #8C8A87",
"+G c #F2F3F5",
"+H c #8B8A86",
"+J c #507298",
"+K c #BFBDB9",
"+L c #7A94B4",
"+P c #AFB8C7",
"+I c #BDBBB7",
"+U c #C2C7D3",
"+Y c #BAB9B4",
"+T c #C0C5D1",
"+R c #969FB5",
"+E c #345783",
"+W c #373A3A",
"+Q c #A9B0C1",
"+! c #B8C2D3",
"+~ c #A1AFC3",
"+^ c #547A9F",
"+/ c #B6C0D1",
"+( c #333636",
"+) c #A6ACBE",
"+_ c #CAD1DE",
"+` c #B3B1AD",
"+' c #F2F5F8",
"+] c #DDE2EA",
"+[ c #C8CFDC",
"+{ c #B1AFAB",
"+} c #C7CFDB",
"+| c #8197B4",
"@  c #B1BACC",
"@. c #4C7297",
"@X c #BDBDBA",
"@o c #ADABA7",
"@O c #D8DCE5",
"@+ c #9EA4B6",
"@@ c #C2C9D6",
"@# c #ABA9A5",
"@$ c #ACB6C7",
"@% c #96A1B8",
"@& c #D4D8E1",
"@* c #5C7DA0",
"@= c #DCDAD5",
"@- c #B7C4D5",
"@; c #BCC3D0",
"@: c #DAD8D3",
"@> c #618CB2",
"@, c #D8D6D1",
"@< c #313437",
"@1 c #D6D4CF",
"@2 c #3F628A",
"@3 c #B0BCCE",
"@4 c #D4D2CD",
"@5 c #2E4C76",
"@6 c #CDCFD0",
"@7 c #D2D0CB",
"@8 c #5483AF",
"@9 c #EBEFF4",
"@0 c #ABB6C9",
"@q c #9CA2B7",
"@w c #9BA2B6",
"@e c #5B81A2",
"@r c #C3C8D0",
"@t c #E8EBF1",
"@y c #CCCAC5",
"@u c #495C6C",
"@i c #979EB2",
"@p c #638EB7",
"@a c #ABB1BF",
"@s c #BAC3D1",
"@d c #909DB5",
"@f c #BFC4CC",
"@g c #969CB1",
"@h c #F9FAFB",
"@j c #D8D8D4",
"@k c #41596E",
"@l c None",
/* pixels */
"@=@=@=@=@=@=@=@=@=@=@=@=@=@=@=@=@=@=@=@=@=@=@=@=@=@=@=@=@=@=@=@=",
"@=@=@=@=@=@=@=@=@=@=@=@=@=@=@=@=@=@=@=@=@=@=@=@=@=@=@=@=@=@=@=@=",
"@=@=@=@=@=@=@=@=@=@=@=@=@=@=@=@=@=@=@=@=@=@=@=@=@=@=@=@=@=@=@=@=",
"@=@=@=@=@=@=@=@=@=@=@=@=@=@=@=@=@=@=@=@=@=@=@=@=@=@=@=@=@=@=@=@=",
"@=@=@=@=@=+7@f+P FXq.9@=@=@=@=@=@=@=@=@=@=@=@=@=@=@=@=@=@=@=@=@=",
"@=@=@=@=OP+d+aXlO7+9@3oB+Oouo1o`@=@=@=@=@=@=@=@=@=@=@=@=@=@=@=@=",
"@=@=@=OnoL@OX5 ++-o:Ol@@X.+/op@0+io<oX@6@=@=@=@=@=@=@=@=@=@=@=@=",
"@=@= (@;+$ , .@io6 -X'.B+Q % [+>+3o5oN H.=.<.^XZOE@=@=@=@=@=@=@=",
"@=.IOE+nO8.go>X(Ow+b+5O]ob+R -@wo..Q+;O@XC+++kXWo4 A.J@foo@=@=@=",
"@=.I@r+$o(O*.8o&XwXw < 3 3.5o|XGX9XeOxX'@q Ko9+>XMX#X/+~Xjo`@=@=",
"@=o`ok+U@+ofoY. +'X7XA+s < <.3._ bObor.4 h kOj@gO^ 1+Z@ o8.+@=@=",
".IO%.F 4oO K+z@-X=+#+o.KXLOSOFXEog.;XOowXvO_@%XrX% !+)O3o .io`@=",
"+&XIo^X{ f@& R+] pO{.D.l+poZ /o++GX2.&X&.].{+tXXORo.oz+* 2+.O}@:",
"@j+wo/OroE@h EO4.KO'+MX:.Do#O)ov@a@&os@9 qOgomOQ.t.L+SO0X]OJO$X!",
".+oD+AXuOOXAoVos >OZo,+o+: #od 8X_ zo_.7.x iXf.NO5o'oR+DXy@.X[X1",
"+lOf.e.j m.WX| P.u.ZXxOyXP ;.fo-.vo*o;OzO X>Ov a.q+_+yo@OAO>Oc+{",
"oTO<O+@d VOd :+Voa e 9XE g Uod+T ~Xm@sO. oo=+ool+UO-+Co)+vo[ Y+@",
"ONX8oF.@+L+|oM.Y =OX N.U C.GOso~ w+h.w@tX-XV o OXgo0@$o7.!XB ^+@",
".d.XO:+JoQ+2./XJoJXnoc.0O`o] j roiXloyXh LOTOiXm.P x ].,.-o$.S@o",
"@X.T@2@*XFO,OhXo 'XboKXUoP+<X~+j...|oH+[O!+} 6 I+aO= yXKOoXQXp+`",
"X1X@Xc &.RXT nOH.r+uO~ X@5+c+f tO[Ot.~ d c.. Z+!X+.%Xo.M.sOu+F+Y",
"+x `O9.1+8 vOe.>X^XaX3OMo%+EO6O2 $.pO2+%./OqOLOB GOU * W.C.#.'X1",
"X)OK+HO#on T+W.}.E@k+N.koSoj *+0.bX`.: 5OaX3X3 uOH 0 DXtoC+ +@X}",
"@1+m@oX;O/.oOp B J.2Xd@<o{X4Xk }+^@>@p 7.m.).$.O@8o3.` Qoh.aXsXR",
"@:@4X$OCO|O&Ok.V |oe l S.Ao!oq+( _o2.nO;@uOm@e+=X6oW soG {.(+B@,",
"@=@:@,XR@yX1XiXN+4X;ODoU {O1OuoxoAoIo! )X*otXDOY.yo} J.6X0+`.[@:",
"@=@=@=XS@:@,+6+e  +I+`O|+,+qX<OG.H |.*.6Op l MOI S l.#.h+@  @1@=",
"@=@=@=@=@=@=@=XSXH@1@7+r+xX1+YXz+@+1.'+gX<OVOW+ oU.zX O(X,XR@:@=",
"@=@=@=@=@=@=@=@=@=@=@=XS@:XHXYX!@y+m+B @+Y.cO(+X@#+`+K@yXY@:@=@=",
"@=@=@=@=@=@=@=@=@=@=@=@=@=@=@=@=XS@:XH@,@1XR.[@y+eX!@1@:XS@=@=@=",
"@=@=@=@=@=@=@=@=@=@=@=@=@=@=@=@=@=@=@=@=@=@=XSXSXS@=@=@=@=@=@=@=",
"@=@=@=@=@=@=@=@=@=@=@=@=@=@=@=@=@=@=@=@=@=@=@=@=@=@=@=@=@=@=@=@="
};
