/* XPM */
static char *properties[] = {
/* width height ncolors chars_per_pixel */
"32 32 491 2",
/* colors */
"   c #000000",
" . c #B1B1B1",
" X c #353534",
" o c #A09F9D",
" O c #AFAFAF",
" + c #E4E4E3",
" @ c #9D9D9A",
" # c #C0BEB9",
" $ c #ABABAB",
" % c #DEDEDD",
" & c #DCDCDB",
" * c #A5A5A5",
" = c #DADAD9",
" - c #A3A3A3",
" ; c #D8D8D7",
" : c #A1A1A1",
" > c #D6D6D5",
" , c #9F9F9F",
" < c #595857",
" 1 c #232322",
" 2 c #585856",
" 3 c #565654",
" 4 c #C1C0BD",
" 5 c #1F1F1E",
" 6 c #D0D0CF",
" 7 c #999999",
" 8 c #1D1D1C",
" 9 c #CECECD",
" 0 c #888785",
" q c #51504F",
" w c #CCCCCB",
" e c #858582",
" r c #4F4E4D",
" t c #838380",
" y c #C8C8C7",
" u c #919191",
" i c #8F8F8F",
" p c #484846",
" a c #C3C2C2",
" s c #C2C2C1",
" d c #454443",
" f c #C0C0BF",
" g c #444442",
" h c #424240",
" j c #BCBCBB",
" k c #E0DFDB",
" l c #BBBABA",
" z c #090908",
" x c #BABAB9",
" c c #838383",
" v c #818181",
" b c #050504",
" n c #B6B6B5",
" m c #7F7F7F",
" M c #393837",
" N c #B4B4B3",
" B c #B3B2B2",
" V c #B2B2B1",
" C c #E7E7E5",
" Z c #7B7B7B",
" A c #E6E5E4",
" S c #A09E9C",
" D c #E5E5E3",
" F c #797979",
" G c #AEAEAD",
" H c #E3E3E1",
" J c #ADACAC",
" K c #E2E1E0",
" L c #AAAAA9",
" P c #DFDFDD",
" I c #737373",
" U c #DEDDDC",
" Y c #A8A8A7",
" T c #62615F",
" R c #DDDDDB",
" E c #CCCBC7",
" W c #A6A6A5",
" Q c #DBDBD9",
" ! c #D9D9D7",
" ~ c #C9C7C4",
" ^ c #C8C7C3",
" / c #D8D7D6",
" ( c #A2A2A1",
" ) c #D7D7D5",
" _ c #6B6B6B",
" ` c #A0A09F",
" ' c #5A5957",
" ] c #D5D5D3",
" [ c #9F9E9E",
" { c #D4D3D2",
" } c #585755",
" | c #D3D3D1",
".  c #9D9C9C",
".. c #656565",
".X c #D0CFCE",
".o c #9A9A99",
".O c #CFCFCD",
".+ c #989897",
".@ c #CDCDCB",
".# c #979696",
".$ c #616161",
".% c #CCCBCA",
".& c #CBCBC9",
".* c #858481",
".= c #5F5F5F",
".- c #C9C9C7",
".; c #83827F",
".: c #939292",
".> c #5D5D5D",
"., c #929291",
".< c #5B5B5B",
".1 c #C6C5C4",
".2 c #B5B3B0",
".3 c #8F8E8E",
".4 c #595959",
".5 c #8E8E8D",
".6 c #C2C1C0",
".7 c #C1C1BF",
".8 c #8A8A89",
".9 c #535353",
".0 c #BEBDBC",
".q c #868685",
".w c #E0DEDA",
".e c #848483",
".r c #DEDCD8",
".t c #FEFEFE",
".y c #DDDCD7",
".u c #DCDAD6",
".i c #FCFCFC",
".p c #B6B5B4",
".a c #FAFAFA",
".s c #A2A19D",
".d c #474747",
".f c #F8F8F8",
".g c #E7E6E4",
".h c #7B7A7A",
".j c #454545",
".k c #F6F6F6",
".l c #B0AFAE",
".z c #7A7A79",
".x c #E5E4E2",
".c c #AFAFAD",
".v c #D4D2CE",
".b c #434343",
".n c #F4F4F4",
".m c #E3E2E0",
".M c #9D9B98",
".N c #E1E0DE",
".B c #3F3F3F",
".V c #F0F0F0",
".C c #AAA9A8",
".Z c #3D3D3D",
".A c #CDCCC7",
".S c #A8A7A6",
".D c #727271",
".F c #DDDCDA",
".G c #3B3B3B",
".H c #DBDAD8",
".J c #6E6E6D",
".K c #C8C6C2",
".L c #373737",
".P c #E8E8E8",
".I c #A2A1A0",
".U c #C6C4C0",
".Y c #353535",
".T c #333333",
".R c #C2C0BC",
".E c #E2E2E2",
".W c #666665",
".Q c #D1D0CE",
".! c #2F2F2F",
".~ c #9A9998",
".^ c #646463",
"./ c #2D2D2D",
".( c #DEDEDE",
".) c #CCCCC9",
"._ c #CBCAC8",
".` c #292929",
".' c #939391",
".] c #272727",
".[ c #D8D8D8",
".{ c #929190",
".} c #252525",
".| c #8F8F8D",
"X  c #595858",
"X. c #8E8D8C",
"XX c #565655",
"Xo c #1F1F1F",
"XO c #545453",
"X+ c #1D1D1D",
"X@ c #CECECE",
"X# c #888786",
"X$ c #525251",
"X% c #515050",
"X& c #1B1B1B",
"X* c #868584",
"X= c #858583",
"X- c #AAA8A4",
"X; c #191919",
"X: c #DFDDD8",
"X> c #CACACA",
"X, c #FFFFFE",
"X< c #171717",
"X1 c #DDDBD6",
"X2 c #4C4C4B",
"X3 c #81817F",
"X4 c #A6A4A0",
"X5 c #151515",
"X6 c #DBD9D4",
"X7 c #4A4A49",
"X8 c #B5B4B2",
"X9 c #131313",
"X0 c #D9D7D2",
"Xq c #D7D5D0",
"Xw c #F7F7F6",
"Xe c #0F0F0F",
"Xr c #444443",
"Xt c #AFAEAC",
"Xy c #434242",
"Xu c #0D0D0D",
"Xi c #424241",
"Xp c #F3F3F2",
"Xa c #E2E1DE",
"Xs c #0B0B0B",
"Xd c #767574",
"Xf c #40403F",
"Xg c #090909",
"Xh c #EFEFEE",
"Xj c #070707",
"Xk c #B8B8B8",
"Xl c #727170",
"Xz c #EDEDEC",
"Xx c #050505",
"Xc c #B6B6B6",
"Xv c #3A3A39",
"Xb c #6F6F6D",
"Xn c #030303",
"Xm c #383837",
"XM c #010101",
"XN c #363635",
"XB c #E7E7E6",
"XV c #A1A09E",
"XC c #D6D5D2",
"XZ c #A0A09D",
"XA c #323231",
"XS c #ACACAC",
"XD c #30302F",
"XF c #E1E1E0",
"XG c #9B9A98",
"XH c #AAAAAA",
"XJ c #CECDCA",
"XK c #DDDDDC",
"XL c #979694",
"XP c #DBDBDA",
"XI c #CAC9C6",
"XU c #A4A4A4",
"XY c #282827",
"XT c #D9D9D8",
"XR c #D7D7D6",
"XE c #A0A0A0",
"XW c #5A5958",
"XQ c #242423",
"X! c #D5D5D4",
"X~ c #232222",
"X^ c #D4D3D3",
"X/ c #585756",
"X( c #222221",
"X) c #D3D3D2",
"X_ c #8D8C8A",
"X` c #20201F",
"X' c #D1D1D0",
"X] c #9A9A9A",
"X[ c #545352",
"X{ c #CFCFCE",
"X} c #898886",
"X| c #989898",
"o  c #CDCDCC",
"o. c #878684",
"oX c #CCCBCB",
"oo c #CBCBCA",
"oO c #858482",
"o+ c #4F4F4D",
"o@ c #4E4D4C",
"o# c #838280",
"o$ c #B8B7B4",
"o% c #929292",
"o& c #C7C7C6",
"o* c #141413",
"o= c #8E8E8E",
"o- c #7D7C7A",
"o; c #474745",
"o: c #8C8C8C",
"o> c #C1C1C0",
"o, c #B0AFAC",
"o< c #8A8A8A",
"o1 c #444342",
"o2 c #BFBFBE",
"o3 c #E4E2DF",
"o4 c #888888",
"o5 c #0C0C0B",
"o6 c #BDBDBC",
"o7 c #868686",
"o8 c #E0DEDB",
"o9 c #DFDEDA",
"o0 c #848484",
"oq c #828282",
"ow c #B5B5B4",
"oe c #6F6E6C",
"or c #7E7E7E",
"ot c #D8D6D3",
"oy c #7C7C7C",
"ou c #E6E6E4",
"oi c #A09F9C",
"op c #9E9D9A",
"oa c #787878",
"os c #E2E2E0",
"od c #9C9B98",
"of c #767676",
"og c #ABABAA",
"oh c #E0E0DE",
"oj c #AAA9A9",
"ok c #DFDEDD",
"ol c #DEDEDC",
"oz c #A8A7A7",
"ox c #DDDCDB",
"oc c #A7A7A6",
"ov c #DCDCDA",
"ob c #A6A5A5",
"on c #707070",
"om c #A5A5A4",
"oM c #D9D8D7",
"oN c #5D5C5A",
"oB c #D8D8D6",
"oV c #D7D6D5",
"oC c #A1A1A0",
"oZ c #D6D6D4",
"oA c #6A6A6A",
"oS c #595856",
"oD c #D4D4D2",
"oF c #8E8D8A",
"oG c #9D9D9C",
"oH c #575654",
"oJ c #D2D2D0",
"oK c #9B9B9A",
"oL c #8A8986",
"oP c #CFCECD",
"oI c #999998",
"oU c #BEBCB9",
"oY c #979796",
"oT c #CCCCCA",
"oR c #868582",
"oE c #CBCAC9",
"oW c #959594",
"oQ c #CACAC8",
"o! c #848380",
"o~ c #5E5E5E",
"o^ c #C8C8C6",
"o/ c #5C5C5C",
"o( c #C6C6C4",
"o) c #C4C4C2",
"o_ c #C3C2C1",
"o` c #8D8D8C",
"o' c #7C7B78",
"o] c #8C8B8B",
"o[ c #8A8989",
"o{ c #898988",
"o} c #868585",
"o| c #505050",
"O  c #BBBAB9",
"O. c #858584",
"OX c #DFDDD9",
"Oo c #FFFFFF",
"OO c #DEDDD8",
"O+ c #B9B8B7",
"O@ c #838382",
"O# c #DDDBD7",
"O$ c #4C4C4C",
"O% c #FDFDFD",
"O& c #818180",
"O* c #FBFBFB",
"O= c #7F7F7E",
"O- c #7E7D7D",
"O; c #F9F9F9",
"O: c #B3B2B1",
"O> c #7D7D7C",
"O, c #E8E7E5",
"O< c #D7D5D1",
"O1 c #7C7B7B",
"O2 c #464646",
"O3 c #7B7B7A",
"O4 c #E6E5E3",
"O5 c #B0B0AE",
"O6 c #444444",
"O7 c #F5F5F5",
"O8 c #E4E3E1",
"O9 c #F3F3F3",
"O0 c #E2E1DF",
"Oq c #404040",
"Ow c #F1F1F1",
"Oe c #3E3E3E",
"Or c #EFEFEF",
"Ot c #DEDDDB",
"Oy c #A8A8A6",
"Ou c #CDCBC7",
"Oi c #3C3C3C",
"Op c #DCDBD9",
"Oa c #A6A6A4",
"Os c #CBC9C5",
"Od c #EBEBEB",
"Of c #6F6F6E",
"Og c #DAD9D7",
"Oh c #383838",
"Oj c #E9E9E9",
"Ok c #A3A2A1",
"Ol c #D8D7D5",
"Oz c #A2A2A0",
"Ox c #C7C5C1",
"Oc c #363636",
"Ov c #E7E7E7",
"Ob c #C6C5C0",
"On c #D6D5D3",
"Om c #343434",
"OM c #D4D3D1",
"ON c #C3C1BD",
"OB c #9D9C9B",
"OV c #D2D1CF",
"OC c #CFCFCC",
"OZ c #2E2E2E",
"OA c #989896",
"OS c #2C2C2C",
"OD c #979695",
"OF c #CCCBC9",
"OG c #2A2A2A",
"OH c #949492",
"OJ c #929290",
"OK c #262626",
"OL c #C5C5C2",
"OP c #242424",
"OI c #D5D5D5",
"OU c #595958",
"OY c #222222",
"OT c #C1C1BE",
"OR c #202020",
"OE c #C0BFBD",
"OW c #CFCFCF",
"OQ c #ADABA7",
"O! c #1C1C1C",
"O~ c #1A1A1A",
"O^ c #CBCBCB",
"O/ c #858483",
"O( c #DEDCD7",
"O) c #C9C9C9",
"O_ c #838281",
"O` c #B8B7B5",
"O' c #161616",
"O] c #DCDAD5",
"O[ c #C7C7C7",
"O{ c #4B4B4A",
"O} c #141414",
"O| c #C5C5C5",
"+  c #B4B3B1",
"+. c #121212",
"+X c #464545",
"+o c #101010",
"+O c #444343",
"++ c #0E0E0E",
"+@ c #434342",
"+# c #F4F4F3",
"+$ c #0C0C0C",
"+% c #777675",
"+& c #D0CEC9",
"+* c #BBBBBB",
"+= c #757473",
"+- c #3F3F3E",
"+; c #080808",
"+: c #B9B9B9",
"+> c #EEEEED",
"+, c #060606",
"+< c #3B3B3A",
"+1 c #70706E",
"+2 c #040404",
"+3 c #6F6E6D",
"+4 c #393938",
"+5 c #020202",
"+6 c #B3B3B3",
"+7 c #6D6C6B",
"+8 c #373736",
"+9 c #A2A19F",
"+0 c #D7D6D3",
"+q c #363535",
"+w c None",
/* pixels */
"O]O]O]O]O]O]O]O]O]O]O]O]O]O]O]O]O]O]O]O]O]O]O]O]O]O]O]O]O]O]O]O]",
"O]O]O]O]O] d 2 2 } } } } } 2oS 2X/ }X/ } } }oSOxO]O]O]O]O]O]O]O]",
"O]O]O].RoL+$X=O/ t.;o!o! e 0X}X}o.oRoR.*oO r XX(.KO]O]O]O]O]O]O]",
"O]O]O]od+-X]X>oXOWX)X- #o, {O)O)O)O)O)O)O) FOUX3X~ ~.uO]O]O]O]O]",
"O]O]O]opOe ; K H.H.zO!Xm+5.~olXPXPXPXPXP =o%+4O,O_ 1 EO#O]O]O]O]",
"O]O]O]oi.GX!O,O,O&Xn+3ouofXn aO,+ X8O,O,O,+6O~.m D IOYXJ.rO]O]O]",
"O]O]O] o.ZoMow BO=+2.|XP.ioyO6ojOD.+ : )O, ; boZO,ok _O!XIX1O]O]",
"O]O]+&XDXOO,.HOn.@+,+@ n.nO9XM j CO,O,O,O,.xO'o_O, C y.>X+ ^O]O]",
"O].A MXAXnOEO,O,O,Xv++O3 =XhX`+X R CO,O,O, Q.! LO[ O *XU.j 5O]O]",
"OboNOUXB.Yo*.g.FX ++.]Oyo(oborXuXGXLoF nO,O4.d+<O$OKOY+,  XN.rO]",
"OQ goJ +O7Xs.G+o+;oA.[ 6oCO3OSXeoC.cO5oQO,.gX'O3O-X].5 , FOcotX1",
"o;X;.) ;.f+*X9Oq.(.a &OToaXXXMo/oYoD CO,O,O,O,.X JXH -XUof.T+0X1",
"X4+5+1o&olOw+#XpO; %oT.8on+,OKO1oG !O,OM 4.QO,O, Ko2og $orOio3O#",
"X0 z+qo`.-X{ >oB.OoQo&ozOiX5+%oRoRoRoRoRoRoRoRXto6oP.H fo0.bXaX1",
"Xq+.o5Xb.,o=.3 ` sOVovO;OmO}o[ ( yoE l.%.%.%.%Og.% )O,XR iXr kO]",
"O].s+,X&X2o|OZ.$ocoQXFO%.jXnO@ ] AO,O,O,O,O,O,O,O,O,O,XR iXrOXO]",
"O]X6 q+8+2  +;XnO{ NXT+>Oj+,+$osOlXCO,O4._o$XCO,OFO,O,XR io1OOO]",
"O]X6Os+3XY vorX9XnO>O+XT.kXc  .d.ooI :XEX_OJ.  :OAO,O,XR i+@.rO]",
"O]O]O<o}OZo`o7o~XMXi.# s PO*.4  XXX.O8.FO,O,O,O,O,O,O,XR i+@O#O]",
"O]O]OXOB.Go6 W uXjXgo4omX{.V.tXoXgXsO'X%O`Ogoh.HOpO,O,XR i+@X1O]",
"O]O].wOk.GoV.6oK.Z+5.<.+OL.EO7.aOwXzOIX9Xs : Y.'OH /O,XR iXyX1O]",
"O]O]X:Oz.Gox ].l.eXM.` m.1OCov.PXFXF.n.V.}OYO,O,O,O,O,XR iXi.uO]",
"O]O].y+9.GXKOg._O:.!+.XFOj.Oo^X) | w %OrOvXn.W.N.gO,O,XR i hO]O]",
"O]O]O(+9.GXK+*og 7OhO|OoO;X^ V.I c...C >OdOfXjoqXS .OtXR i hO]O]",
"O]O]O(+9.GXK C D.:.LX,.tOw [o<.B+,+5Oeo:Xko>.Yoa xX'.mXR iXyO#O]",
"O]O]O#XV.GXKO0X!+++:XwOwo .9O}++OcOqXM.= cO2XsoW.p UO,XR i+OOXO]",
"O]O]X1XZ.G UOlo]XM Z 9.& Y+5OPoyoy F+.Xg.BXg+XoWO O0O,XR iXro8O]",
"O]O]X1 S.Gov.O.=Xj./Oa.7o) 8+4o{.8o0onX<O'.hO. WoJovXPX) iXro9O]",
"O]O]O] @.YO)o oC+2Xx.{.S.0.^++.D.6 NX| voRoY GooX@ woXO^ofXfO(O]",
"O]O]O]ON.`+-O@.JXi+5OG To+o*ORX$o{X#oRXdXl+=o-o#oOX*.q+7X5.2O]O]",
"O]O]O]O]oUXQ <X[X7X(XMXM  +; poS 'XWX/X/oH 3 } } 2 2oSo'.UO]O]O]",
"O]O]O]O]O]O]X1O]Xq.v.Mo@oeOuO]O]O]O]O]O]O]O]O]O]O]O]O]O]O]O]O]O]"
};
