/* XPM */
static char *lcd[] = {
/* width height ncolors chars_per_pixel */
"32 32 302 2",
/* colors */
"   c #C6C4BF",
" . c #C4C2BD",
" X c #C2C0BB",
" o c #C0BEB9",
" O c #2E312D",
" + c #344F36",
" @ c #282B27",
" # c #304932",
" $ c #2D452F",
" % c #212320",
" & c #535251",
" * c #4F4E4D",
" = c #4D4E4B",
" - c #203122",
" ; c #484C46",
" : c #484846",
" > c #747371",
" , c #72716F",
" < c #3C3C3A",
" 1 c #6E6D6B",
" 2 c #425243",
" 3 c #405041",
" 4 c #353633",
" 5 c #6A6967",
" 6 c #686765",
" 7 c #3D4C3E",
" 8 c #656962",
" 9 c #656762",
" 0 c #666563",
" q c #3A483B",
" w c #646361",
" e c #636360",
" r c #384639",
" t c #62615F",
" y c #374438",
" u c #605F5D",
" i c #354236",
" p c #5E5D5B",
" a c #91908D",
" s c #5A5957",
" d c #303C31",
" f c #8D8C89",
" g c #565553",
" h c #2A342B",
" j c #263A27",
" k c #52514F",
" l c #878683",
" z c #253826",
" x c #283229",
" c c #858481",
" v c #83827F",
" b c #81807D",
" n c #1E301F",
" m c #7F7E7B",
" M c #202821",
" N c #7D7C79",
" B c #7B7A77",
" V c #797875",
" C c #19261A",
" Z c #AEADA9",
" A c #1B221C",
" S c #787674",
" D c #ACABA7",
" F c #403F3D",
" G c #181E19",
" H c #AAA9A5",
" J c #A8A7A3",
" K c #71706D",
" L c #121C13",
" P c #A6A5A1",
" I c #A3A19E",
" U c #6D6C69",
" Y c #A19F9C",
" T c #9F9D9A",
" R c #9E9D99",
" E c #686664",
" W c #9D9B98",
" Q c #9C9B97",
" ! c #9A9D95",
" ~ c #9B9996",
" ^ c #999794",
" / c #989793",
" ( c #979592",
" ) c #CBCAC5",
" _ c #94938F",
" ` c #C9C8C3",
" ' c #363D36",
" ] c #020403",
" [ c #C8C6C2",
" { c #C4C2BE",
" } c #8B8986",
" | c #898784",
".  c #BDBCB7",
".. c #2A2F2A",
".X c #BCBAB6",
".o c #858380",
".O c #BAB8B4",
".+ c #B9B8B3",
".@ c #B8B6B2",
".# c #B7B6B1",
".$ c #B6B4B0",
".% c #565E55",
".& c #B4B2AE",
".* c #212521",
".= c #B2B0AC",
".- c #1E251E",
".; c #1E231E",
".: c #B0AEAA",
".> c #1D211D",
"., c #ACAAA6",
".< c #AAA8A4",
".1 c #181B18",
".2 c #171B17",
".3 c #4B524A",
".4 c #A8A6A2",
".5 c #A6A4A0",
".6 c #DBD9D4",
".7 c #111911",
".8 c #131513",
".9 c #83A384",
".0 c #121512",
".q c #D9D7D2",
".w c #111511",
".e c #111311",
".r c #D7D5D0",
".t c #0E110E",
".y c #D5D3CE",
".u c #0C0F0C",
".i c #D3D1CC",
".p c #0B0D0B",
".a c #D1CFCA",
".s c #090B09",
".d c #CFCDC8",
".f c #060906",
".g c #CDCBC6",
".h c #3A4039",
".j c #060706",
".k c #050705",
".l c #CBC9C4",
".z c #030303",
".x c #C9C7C2",
".c c #C7C5C0",
".v c #718D72",
".b c #676D65",
".n c #C3C1BC",
".m c #6E896F",
".M c #C1BFBA",
".N c #2F322E",
".B c #69836A",
".V c #324C34",
".C c #5B6159",
".Z c #2E4630",
".A c #5B5B59",
".S c #617962",
".D c #575D55",
".F c #5F7760",
".G c #545952",
".H c #1E201D",
".J c #858A82",
".K c #596F5A",
".L c #848881",
".P c #82887F",
".I c #181A17",
".U c #526753",
".Y c #516552",
".T c #4F6350",
".R c #767673",
".E c #495B4A",
".W c #747471",
".Q c #475948",
".! c #737270",
".~ c #71706E",
".^ c #373735",
"./ c #363734",
".( c #6B6C68",
".) c #6B6A68",
"._ c #686C65",
".` c #696866",
".' c #31312F",
".] c #656662",
".[ c #656462",
".{ c #636660",
".} c #989B94",
".| c #636260",
"X  c #979993",
"X. c #61605E",
"XX c #324B33",
"Xo c #5F5E5C",
"XO c #5D5C5A",
"X+ c #92918E",
"X@ c #313D32",
"X# c #908F8C",
"X$ c #8E918A",
"X% c #8E8D8A",
"X& c #8C8B88",
"X* c #8B8B87",
"X= c #253B26",
"X- c #868582",
"X; c #B9BAB4",
"X: c #82817E",
"X> c #807F7C",
"X, c #474644",
"X< c #1C2B1D",
"X1 c #7A7976",
"X2 c #1A271B",
"X3 c #AFAEAA",
"X4 c #787774",
"X5 c #ADACA8",
"X6 c #777573",
"X7 c #767572",
"X8 c #ABAAA6",
"X9 c #89AB8B",
"X0 c #152116",
"Xq c #87A989",
"Xw c #86A788",
"Xe c #A7A6A2",
"Xr c #706F6C",
"Xt c #A5A4A0",
"Xy c #A4A29F",
"Xu c #6E6D6A",
"Xi c #81A183",
"Xp c #A2A09D",
"Xa c #6C6B68",
"Xs c #7F9F81",
"Xd c #9F9E9A",
"Xf c #0C130D",
"Xg c #7E9D80",
"Xh c #9D9C98",
"Xj c #7C9B7E",
"Xk c #9C9A97",
"Xl c #9A9895",
"Xz c #999894",
"Xx c #79977B",
"Xc c #989693",
"Xv c #CCCBC6",
"Xb c #969491",
"Xn c #769378",
"Xm c #959490",
"XM c #CAC9C4",
"XN c #94928F",
"XB c #93928E",
"XV c #C7C5C1",
"XC c #91908C",
"XZ c #C5C3BF",
"XA c #C4C3BE",
"XS c #313831",
"XD c #8E8C89",
"XF c #C3C1BD",
"XG c #C1BFBB",
"XH c #8A8A85",
"XJ c #8A8885",
"XK c #BFBDB9",
"XL c #2C322C",
"XP c #6A856C",
"XI c #BDBBB7",
"XU c #BCBBB6",
"XY c #BBB9B5",
"XT c #272E27",
"XR c #B9B7B3",
"XE c #B8B7B2",
"XW c #81807C",
"XQ c #627B64",
"X! c #B5B3AF",
"X~ c #212821",
"X^ c #B3B1AD",
"X/ c #B1AFAB",
"X( c #5B795D",
"X) c #5D755F",
"X_ c #AFADA9",
"X` c #191E19",
"X' c #ABA9A5",
"X] c #171C17",
"X[ c #A9A7A3",
"X{ c #DCDAD5",
"X} c #141814",
"X| c #131613",
"o  c #DAD8D3",
"o. c #101810",
"oX c #A3A19D",
"oo c #111411",
"oO c #D8D6D1",
"o+ c #444B43",
"o@ c #0F120F",
"o# c #D6D4CF",
"o$ c #0D100D",
"o% c #D4D2CD",
"o& c #0C0E0C",
"o* c #0B0E0B",
"o= c #D2D0CB",
"o- c #40433F",
"o; c #0B0C0B",
"o: c #0A0C0A",
"o> c #3D453C",
"o, c #D0CEC9",
"o< c #3D433C",
"o1 c #CECCC7",
"o2 c #070807",
"o3 c #CCCAC5",
"o4 c #050605",
"o5 c #CAC8C3",
"o6 c #010201",
"o7 c None",
/* pixels */
"X{X{X{X{X{X{X{X{X{X{X{X{X{X{X{X{X{X{X{X{X{ !.%X`o*.2 JX{X{X{X{X{",
"X{X{X{X{X{X{X{X{X{X{X{X{X{X{X{X{X{.d.Jo<.uX] 2.BX9 3 eo .6X{X{X{",
"X{X{X{X{X{X{X{X{X{X{X{X{X{X{X;.bXLo4 x.TXxX9X9X9X9.B %.ro X{X{X{",
"X{X{X{X{X{X{X{X{X{X{X{.}.DX}o$ i.F.9X9X9X9X9X9X9X9Xq.p.+oOX{X{X{",
"X{X{X{X{X{X{X{Xv.L.h.s AX2.mX9X9X9X9X9X9X9X9X9X9X9X9X@.R.y.6X{X{",
"X{X{X{X{.+._..o4 h.UXjX9 +X9 +X9X9X9X9 + + +X9X9X9X9.K./o=o X{X{",
".qX .GX|o@ q.SXwX9X9X9X9X9 +X9X9X9X9 + + + + + +X9X9Xso2.c.qX{X{",
".PX].Q.vX9X9X9X9X9X9X9X9X9 +X9 +X9 + +X9 +X9 + + +X9X9X~ fo#.6X{",
"X$ MX9X9X9X9X9X9X9X9X9X9X9 + +X9X9 + +X9 +X9 +X9 + +X9.E =.i.6X{",
".go&XxX9X9X9X9X9X9X9X9X9X9X9 +X9 + + +X9 +X9 +X9 + + +.v.8.d.qX{",
"XF '.YX9X9X9X9X9X9X9X9X9X9X9 +X9 + + +X9 +X9 +X9 +X9X=X=oo P.rX{",
".# 8 xX9X9X9X9X9X9X9X9X9X9X9 +X9 +X9 +X9 +X9XnX=X=X=X9 + r.]o%.6",
".=X*o:XiX9X9X9X9X9X9X9X9X9X9X9X= +X9 +X9XnX=X=X=XnX9 +X9.S Oo,o ",
"X/XNXT.KX9X9X9X9X9X9X9X9X9X9X9X= +X9X=X=X=X9 +X9 +X9 +X9.Vo:XA.r",
"X! /.3 dX9X9X9X9X9X9X9X9X9 +X9X=X=X=X=X9 +X9 +X9 +X9 +X9 + xXH.y",
".X Y.Wo:XqX9X9X9X9X9 +X9X9X=X=X=X=X9 +X9 +X9 +X9 +X9 +X9 +.Y ;.a",
".n.<X&.;XQX9X9 +X9X9X=X=X=X9X9 +X=X9 +X9 +X9 +X9 +X9 +X9 +Xx.0Xv",
" [.=Xmo+X0X9X9X9X=X=X9X9X9X9 + +X= +X(X9 +X9 +X9 +X9 +X9 +X9X`Xy",
"o1.O R.(.fX=X=X=X9X9X9X9X9X9 + +X9 +X(X9 +X9 +X9 +X9 +X9 +X9 3 0",
"o=.M.4XJ.w n + +X9X9X9X9X9X9 + +X9 +X(X9 +X9 +X9 +X9 +X9 j 7.t w",
".y.cX/XBo> 3 + + + +X9X9 + + +X9 +X9X=X9 +X9 +X9XXX) L.s.1o- NX!",
"oOXvXE Q.{ G +X9 + + + + + + +X9 +X9X=X9 +Xg - x.z.> 4 k 6 BXbX^",
"o .a o.5X-o:.ZX9 +X9 + + +X9 +X9 +X9 $.EX~.j.* < g pX. 0.~ v ~.$",
".6.y   ZXCXSX<X9 +X9 +X9 +X9 +XP CX}o; @ F sXo t 0.) K S vXBXe. ",
"X{.r.l.$Xl.CXfX9 +X9 +Xw z y.k.e.NX,XO u.| E U , VX> | a WX'.+ [",
"X{.qo,.  IXW ]Xs #.K.7.j.I.' * p u w.` 1 > BX: } _Xh PX_.@XGo5o=",
"X{.6o% ..,X%o..-o6.H.^ & pX..[ 5XrX7 N cXD (XdX[X/XR o   ).a.yoO",
"X{X{.r `.&Xc 9 :.AXo t 0Xa.~X4 m lX#XzoXX8.&XY XXVXv.a.y.r.q.6X{",
"X{X{.q.dXU I |X6XuXu.!X1 bXJX+XkXtX5.$XI ..xo1o=o#oOo .6X{X{X{X{",
"X{X{o .i {X3 ^XJ v.oX&Xm RXe.:.@XKXZXM.d.io#.qo .6X{X{X{X{X{X{X{",
"X{X{.6o#o3.  DXp TXp H.=.O.M.co3.ao%.r.q.6X{X{X{X{X{X{X{X{X{X{X{",
"X{X{X{.q.iXM.MXY.OXU.n [o1o=.yoOo .6X{X{X{X{X{X{X{X{X{X{X{X{X{X{"
};
