/* XPM */
static char * run_2_xpm[] = {
"16 12 2 1",
" 	c None",
".	c #FF0217",
"        ..      ",
"        ...     ",
"        ....    ",
"        .....   ",
"..............  ",
"............... ",
"............... ",
"..............  ",
"        .....   ",
"        ....    ",
"        ...     ",
"        ..      "};
