/* XPM */
static char *icon[] = {
"48 48 31 1",
"` c None",
". c #6f686f",
"# c #302f30",
"a c #605f60",
"b c #a09fa0",
"c c #808080",
"d c #4f484f",
"e c #908f90",
"f c #807080",
"g c #d0cfd0",
"h c #2f5fb0",
"i c #b0a8b0",
"j c #3f383f",
"k c #5f775f",
"l c #405f40",
"m c #7f707f",
"n c #3f373f",
"o c #6f9f6f",
"p c #709f70",
"q c #303030",
"r c #2f282f",
"s c #706f70",
"t c #1f181f",
"u c #3060bf",
"v c #80b780",
"w c #3060b0",
"x c #dfd000",
"y c #df00df",
"z c #201f20",
"A c #8f7f8f",
"B c #000000",
"```..#####################################``````",
"``abbccccccccccccccccccccccccccccccccccccbBB````",
"``abbccccccccccccccccccccccccccccccccccccbBB````",
"``deefgggggggggggggggggggggggfhhfiifiifiieBB````",
"``jccfggkkkkkkkkkkkkkkkkkklggffffffffffffmBB````",
"``jccfggkkkkkkkkkkkkkkkkkklggffffffffffffmBB````",
"``nccfggloooooooooooooooool##################BB`",
"``nccfgglooooooooooooooooo###################BB`",
"``nccfgglooooooooooooooooo##i################BB`",
"``nccfgglooooooooooooooooo###kkkkkkkkkkkkkkk#BB`",
"``jccfgglooooooooooooooooo###loooooooooooooo#BB`",
"``jccfgglooooooooooooooooo###loooooooooooooo#BB`",
"``nccfgglooooooooooooooooo###loooooooooooooo#BB`",
"``nccfggllllllllllllllllll###loooooooooooooo#BB`",
"``nccfggllllllllllllllllll###loooooooooooooo#BB`",
"``nccfgggggggggggggggggggg###looooopoooooooo#BB`",
"``qccfffffffffffffffffffff###loooooooooooooo#BB`",
"``qccfggfggfggfggfggfggfgg###loooooooooooooo#BB`",
"``qccfffffffffffffffffffff###lllllllllllllll#BB`",
"``qccffBfBBfBBfBBfBBfBBfff###################BB`",
"``qccffifiifiifiifiifiifif###################BB`",
"``rccfffffffffffffffffffff#cffffffffffffffffsBB`",
"``tccffqfqqfqqfqqfqqf##fff#cffhhfhhfuufuufuusBB`",
"``tccffifiifiifiifiifiifif#cffhhfhhfuufuufuusBB`",
"``Bccfftfttfttfttf##f##fff#cffiifiifiifiifiisBB`",
"``rccffifiifiifiifiifiifif#cffffffffffffffffmBB`",
"``rccfffffffffffffffff##ff#cffffffffffffffffmBB`",
"``tccfggfvvfwwf#####ff##ff#cffxxfggfwwfffgffmBB`",
"``Bbbfiifiifiifiiiiiffiiff#cffffffffffffgfgfmBB`",
"``Bbbfffffffffffffffffffff#cffffffffffffgfgfmBB`",
"```BBecccccccccccccccccccc#cffvvfyyfwwfffgffmBB`",
"`````BBB###################cffffffffffffffffmBB`",
"`````BBB###################cffffffffffffffffmBB`",
"``````````````````````````#cffttfBBfzzfzzfzzmBB`",
"``````````````````````````#cfffifiifiifiififmBB`",
"``````````````````````````#cffiifiifiifiifiimBB`",
"``````````````````````````#cffttfBBfBBfBBfzzmBB`",
"``````````````````````````#cffiifiifiifiifiimBB`",
"``````````````````````````#cffiifiifiifiifiimBB`",
"``````````````````````````#cffttfBBfBBfBBfzzmBB`",
"``````````````````````````#cffiifiifiifiifiimBB`",
"``````````````````````````#cfffifiifiifiififmBB`",
"``````````````````````````#eeAzzfBBfBBfBBhhhABB`",
"```````````````````````````BBfffffffffcfffffB```",
"```````````````````````````BBcccccccccccccccB```",
"`````````````````````````````BBBBBBBBBBBBBBB````",
"````````````````````````````````````````````````",
"````````````````````````````````````````````````"
};
