/* XPM */
static char * romdump_xpm[] = {
"48 48 140 2",
"  	c None",
". 	c #010101",
"+ 	c #000000",
"@ 	c #040404",
"# 	c #0F0F0F",
"$ 	c #1B1B1B",
"% 	c #212121",
"& 	c #222222",
"* 	c #202020",
"= 	c #1F1F1F",
"- 	c #3F3F3F",
"; 	c #6F6F6F",
"> 	c #898989",
", 	c #909090",
"' 	c #8E8E8E",
") 	c #878787",
"! 	c #818181",
"~ 	c #808080",
"{ 	c #868686",
"] 	c #8D8D8D",
"^ 	c #919191",
"/ 	c #8F8F8F",
"( 	c #C4C4C4",
"_ 	c #EFEFEF",
": 	c #F7F7F7",
"< 	c #F1F1F1",
"[ 	c #EEEEEE",
"} 	c #E8E8E8",
"| 	c #E1E1E1",
"1 	c #E7E7E7",
"2 	c #EDEDED",
"3 	c #F0F0F0",
"4 	c #F6F6F6",
"5 	c #FFFFFF",
"6 	c #F4F4F4",
"7 	c #FEFEFE",
"8 	c #F3F3F3",
"9 	c #EBEBEB",
"0 	c #D8D8D8",
"a 	c #9B9B9B",
"b 	c #999999",
"c 	c #CFCFCF",
"d 	c #D7D7D7",
"e 	c #A0A0A0",
"f 	c #A2A2A2",
"g 	c #E0E0E0",
"h 	c #949494",
"i 	c #333333",
"j 	c #323232",
"k 	c #929292",
"l 	c #121212",
"m 	c #060606",
"n 	c #404040",
"o 	c #EAEAEA",
"p 	c #777777",
"q 	c #050505",
"r 	c #787878",
"s 	c #151515",
"t 	c #888888",
"u 	c #141414",
"v 	c #ECECEC",
"w 	c #7E7E7E",
"x 	c #101010",
"y 	c #131313",
"z 	c #989898",
"A 	c #9A9A9A",
"B 	c #D0D0D0",
"C 	c #7F7F7F",
"D 	c #F2F2F2",
"E 	c #F5F5F5",
"F 	c #E4E4E4",
"G 	c #DEDEDE",
"H 	c #E5E5E5",
"I 	c #D9D9D9",
"J 	c #858585",
"K 	c #717171",
"L 	c #707070",
"M 	c #767676",
"N 	c #7D7D7D",
"O 	c #7C7C7C",
"P 	c #A1A1A1",
"Q 	c #0B0B0B",
"R 	c #111111",
"S 	c #0D0D0D",
"T 	c #090909",
"U 	c #0C0C0C",
"V 	c #1E1E1E",
"W 	c #5C5C5C",
"X 	c #797979",
"Y 	c #BFBFBF",
"Z 	c #E9E9E9",
"` 	c #CECECE",
" .	c #848484",
"..	c #A3A3A3",
"+.	c #E2E2E2",
"@.	c #939393",
"#.	c #8C8C8C",
"$.	c #313131",
"%.	c #424242",
"&.	c #AAAAAA",
"*.	c #0A0A0A",
"=.	c #1D1D1D",
"-.	c #9C9C9C",
";.	c #343434",
">.	c #0E0E0E",
",.	c #727272",
"'.	c #CCCCCC",
").	c #D3D3D3",
"!.	c #2D2D2D",
"~.	c #242424",
"{.	c #FBFBFB",
"].	c #020202",
"^.	c #E3E3E3",
"/.	c #656565",
"(.	c #282828",
"_.	c #272727",
":.	c #5F5F5F",
"<.	c #5E5E5E",
"[.	c #FDFDFD",
"}.	c #FAFAFA",
"|.	c #191919",
"1.	c #D2D2D2",
"2.	c #6E6E6E",
"3.	c #D1D1D1",
"4.	c #1C1C1C",
"5.	c #9F9F9F",
"6.	c #A8A8A8",
"7.	c #484848",
"8.	c #757575",
"9.	c #383838",
"0.	c #1A1A1A",
"a.	c #3A3A3A",
"b.	c #030303",
"c.	c #252525",
"d.	c #575757",
"e.	c #8B8B8B",
"f.	c #414141",
"g.	c #181818",
"h.	c #6A6A6A",
"i.	c #C0C0C0",
". . + + + + + + + + + + + + + + + + + + + + + + + + + + + + + + + + + + + + + + + + + + + + + . ",
". . + + + + + + + + + + + + + + + + + + + + + + + + + + + + + + + + + + + + + + + + + + + + + . ",
"+ + @ # $ % & & % * = = * % & & & % * = = * % & & & % * = = * % % * = = * % & & & & & % $ # @ + ",
"+ + # - ; > , , ' ) ! ~ { ] ^ ^ ^ ] { ~ ~ { ] ^ ^ ^ ] { ~ ! ) ' ' ) ! ~ { ] ^ ^ ^ / / > ; - # + ",
"+ + $ ; ( _ : < [ } | | 1 2 3 < 3 2 1 | | 1 2 3 < 3 2 1 | | } [ [ } | | 1 2 3 < 3 3 4 _ ( ; $ + ",
"+ + % > _ 5 5 6 < 7 5 5 5 8 2 9 2 8 5 5 5 5 8 2 9 2 8 5 5 5 7 < < 7 5 5 5 8 2 9 2 4 5 5 _ > % + ",
"+ + & / 4 5 0 a b c 5 5 d e ) ~ ) e d 5 5 d e ) ~ ) e d 5 5 c b b c 5 5 d e ) ~ ) f g 5 4 / & + ",
"+ + & / 3 8 h i j k < 6 e - l m l - e 6 6 e - l m l - e 6 < k j j k < 6 e - l m l n f 4 3 / & + ",
"+ + & , 3 o p q q r 9 [ > s + + + s > [ [ > s + + + s > [ 9 r q q r 9 [ > s + + + s t 2 3 , & + ",
"+ + & , 3 o p @ @ r 9 [ t u + + + u t [ [ t u + + + u t [ 9 r @ @ r 9 [ t u + + + u ) 2 3 , & + ",
"+ + & , _ v w x x w v _ ' = + + + = ' _ _ ' = + + + = ' _ v w x x w v _ ' = + + + = ' _ _ , & + ",
"+ + & / _ v ~ y y ~ v _ / & + + + & / _ _ / & + + + & / _ v ~ y y ~ v _ / & + + + & / _ _ / & + ",
"+ + & / _ v ~ y y ~ v _ / & + + + & / _ _ / & + + + & / _ v ~ y y ~ v _ / & + + + & / _ _ / & + ",
"+ + & / _ v ~ y y ~ v _ / & + + + & / _ _ / & + + + & / _ v ~ y y ~ v _ / & + + + & / _ _ / & + ",
"+ + & / _ v ~ y y ~ v _ / & + + + & / _ _ / & + + + & / _ v ~ y y ~ v _ / & + + + & / _ _ / & + ",
"+ + & / _ v ~ y y ~ v _ / & + + + & / _ _ / & + + + & / _ v ~ y y ~ v _ / & + + + & / _ _ / & + ",
"+ + & / _ v ~ y y ~ v _ / & + + + & / _ _ / & + + + & / _ v ~ y y ~ v _ / & + + + & / _ _ / & + ",
"+ + & / _ v ~ y y ~ v _ / & + + + & / _ _ / & + + + & / _ v ~ y y ~ v _ / & + + + & / _ _ / & + ",
"+ + & / _ v ~ y y ~ v _ / & + + + & / _ _ / & + + + & / _ v ~ y y ~ v _ / & + + + & / _ _ / & + ",
"+ + & / _ v ~ y y ~ v _ / & + + + & / _ _ / & + + + & / _ v ~ y y ~ v _ / & + + + & / _ _ / & + ",
"+ + & / _ v ~ y y ~ v _ / & + + + & / _ _ / & + + + & / _ v ~ y y ~ v _ / & + + + & / _ _ / & + ",
"+ + & / _ v ~ y y ~ v _ / & + + + & / _ _ / & + + + & / _ v ~ y y ~ v _ / & + + + & / _ _ / & + ",
"+ + & / _ v ~ y y ~ v _ / & + + + & / _ _ / & + + + & / _ v ~ y y ~ v _ / & + + + & / _ _ / & + ",
"+ + & / _ v ~ y y ~ v _ / & + + + & / _ _ / & + + + & / _ v ~ y y ~ v _ / & + + + & / _ _ / & + ",
"+ + & / _ v ~ y y ~ v _ / & + + + & / _ _ / & + + + & / _ v ~ y y ~ v _ / & + + + & / _ _ / & + ",
"+ + & / _ v ~ y y ~ v _ / & + + + & / _ _ / & + + + & / _ v ~ y y ~ v _ / & + + + & / _ _ / & + ",
"+ + & , _ v w x x w v _ ' = + + + = ' _ _ ' = + + + = ' _ v w x x w v _ ' = + + + = ' _ _ , & + ",
"+ + & , 3 o p @ @ r 9 [ t u + + + u t [ [ t u + + + u t [ 9 r @ @ r 9 [ t u + + + u ) 2 3 , & + ",
"+ + & , 3 o p q q r 9 [ > s + + + s > [ [ > s + + + s > [ 9 r q q r 9 [ > s + + + s t 2 3 , & + ",
"+ + % ] 2 < k j j k < 6 e - l m l - e 6 6 e - l m l - e 6 < k j j k < 6 e - l m l - e 8 2 ] % + ",
"+ + * { 1 5 c z A B 5 5 d e ) C ) e d 5 5 d e ) C ) e d 5 5 c b b c 5 5 d e ) ~ t e d 5 1 { * + ",
"+ + = ~ | 5 5 D D 5 5 5 5 8 2 9 2 8 5 5 5 5 8 2 9 2 8 5 5 5 7 < < 7 5 5 5 8 2 v [ 6 5 5 | ~ = + ",
"+ + = ~ | 5 5 E v F G G F o 2 [ 2 o F G G F o 2 [ 2 o F G G H 9 9 H G G F o 2 [ [ 6 5 5 | ~ = + ",
"+ + * { 1 5 I f J r K L M N ! ! ! N p K K p N ! ! ! N p K K r w w r K L M O ! ! ) P 0 5 1 { * + ",
"+ + % ] 2 8 P n y Q # # x l y y y l R x x R l y y y l R x x R y y R x x x l l S y n P 8 2 ] % + ",
"+ + & , 3 2 { y + + T l u y y R x x R l y y y l R x x R l y y y y y y y y l T + + y { 2 3 , & + ",
"+ + & , 3 v ~ U + V W X ~ ~ w r K K p N ! ! ! N p K K p N ~ ~ ~ ~ ~ ~ C C X W V + U ~ v 3 , & + ",
"+ + & , _ v ~ l T W Y v 6 [ 9 H G G F o 2 [ 2 o F G G F o 2 2 v v 2 2 2 8 v Y W T l ~ v _ , & + ",
"+ + & / _ v C l l X v 5 5 6 < 5 5 5 5 3 o Z v 6 5 5 5 5 < o 9 [ _ 2 2 4 5 5 v X l l C v _ / & + ",
"+ + & / _ v C l y ~ 8 5 0 a b B 5 5 ` ^ p M  ...+.5 5 d @.r w #./ t t f g 5 8 ~ y l C v _ / & + ",
"+ + & / _ v C y y C 2 8 h i j @.D D z $.@ + # %.&.5 5 e i m *.=.* s s n f 4 2 C y y C v _ / & + ",
"+ + & ^ D _ ! y y ~ 2 o p q q M Z 8 -.;.+ + + >.,.'.).t !.+ + + + + + s t 2 2 ~ y y ! _ D ^ & + ",
"+ + ~.z 7 {.t s l ~ 2 o p @ ].; ^.5 I A /.(.+ + _.:.X ~ X <._.+ + + + s t 2 2 ~ l s t {.7 z ~.+ ",
"+ + ~.z [.}.t s l C v v w x S ; G 5 5 5 ` ,.|.+ + + !.) ).'.,.S + + + * / _ v C l s t }.[.z ~.+ ",
"+ + V w 1.c 2.# s ! v v ~ y x K G 5 5 5 3.M 4.+ + + j 5.[.5 6.n *.+ + * ' _ v ! s # 2.c 1.w V + ",
"+ + R 7.r 8.9.].0.) [ v ~ y R p F 5 g 6.M a.*.b.c.d.e.c 5 5 I A /._.+ 0.) [ [ ) 0.].9.8.r 7.R + ",
"+ + @ R =.0.. + * ' _ v ~ y l N o 6 f f.>.+ + g.h.i._ 5 5 5 5 D i.<.U s ! v _ ' * + . 0.=.R @ + ",
". . + + + + + + & , _ v ~ y y ~ 2 2 ) u + + + % > [ 5 5 5 5 5 5 9 r l l C v _ , & + + + + + + . "};
