/* XPM */
static char * bkpt_xpm[] = {
"8 8 2 1",
" 	c None",
".	c #02FF17",
".      .",
" .    . ",
"  ....  ",
"  ....  ",
"  ....  ",
"  ....  ",
" .    . ",
".      ."};
