/* XPM */
static char *logo[] = {
/* width height ncolors chars_per_pixel */
"74 79 33 1",
/* colors */
"  c #D0CACC",
". c #A59C9B",
"X c #4D588A",
"o c #726D75",
"O c #FCF8F9",
"+ c #EDCC27",
"@ c #D1A436",
"# c #EDBB23",
"$ c #CFA558",
"% c #EFE9EB",
"& c #DEA114",
"* c #8A818B",
"= c #CD8A0D",
"- c #515560",
"; c #D6BEB4",
": c #BFBBBB",
"> c #4F3818",
", c #292831",
"< c #63636D",
"1 c #3E3E4C",
"2 c #004993",
"3 c #B7925C",
"4 c #0D090E",
"5 c #E2DBDF",
"6 c #344169",
"7 c #F0B519",
"8 c #B48E34",
"9 c #6571A6",
"0 c #9F6C1C",
"q c #C7972C",
"w c #7A87C1",
"e c #4A4A56",
"r c None",
/* pixels */
"22222222222222222222222224444444442222222222222222222222222222222222222222",
"22222222222222222222222244444444444222222222222222222222222222222222222222",
"2222222222222222222222244444444441e442222222222222222222222222222222222222",
"222222222222222222222244444444444<o144222222222222222222222222222222222222",
"222222222222222222222444444444444ee,44222222222222222222222222222222222222",
"222222222222222222222444444444444,4444422222222222222222222222222222222222",
"22222222222222222222244444444444444444422222222222222222222222222222222222",
"22222222222222222222244444444444444444442222222222222222222222222222222222",
"22222222222222222222444444444444444444442222222222222222222222222222222222",
"222222222222222222224444,,444441<e,,44442222222222222222222222222222222222",
"222222222222222222224,.:e4444,*:  o444442222222222222222222222222222222222",
"222222222222222222224*5% 1444o%5:5 144442222222222222222222222222222222222",
"22222222222222222222,5*oO*44, Oe,*%*44442222222222222222222222222222222222",
"22222222222222222222e:,1.:4,1 .4,1.:44442222222222222222222222222222222222",
"222222222222222222222:44-*>>>.*444o:44442222222222222222222222222222222222",
"222222222222222222221 ,4>8@@833444::44442222222222222222222222222222222222",
"222222222222222222222:.>q7##7##8>.%<44442222222222222222222222222222222222",
"222222222222222222222-$q7##++++++#$>44442222222222222222222222222222222222",
"2222222222222222222220=&7##++++++##844444222222222222222222222222222222222",
"222222222222222222222=&77#++++++&=&044444222222222222222222222222222222222",
"2222222222222222222220&77#++++#&==&044,44222222222222222222222222222222222",
"222222222222222222222>0&7++##=====q>44-<4222222222222222222222222222222222",
"222222222222222222222>30=&&=====q$;.44,*<,22222222222222222222222222222222",
"222222222222222222222-;30&&====8.  :,44<<422222222222222222222222222222222",
"222222222222222222222- :300000$; 5%%*4444442222222222222222222222222222222",
"222222222222222222224*5  .333;: 5OOO%1444442222222222222222222222222222222",
"22222222222222222222>%% :::   5%OOOOO*444444222222222222222222222222222222",
"22222222222222222224.OO%:::: %OOOOOOO%144444422222222222222222222222222222",
"2222222222222222224<OOOO%5 5%OOOOOOOOO.44444422222222222222222222222222222",
"2222222222222222244 OOOOOOOOOOOOOOOOOO:44444442222222222222222222222222222",
"222222222222222244<%OOOOOOOOOOOOOOOOOO5,4444444222222222222222222222222222",
"222222222222222444.OOOOOOOOOOOOOOOOOO%%e4444444422222222222222222222222222",
"22222222222222244,.5OOOOO%%%OOOO%%%55 5*4444444442222222222222222222222222",
"22222222222222444,. %OOOO%OOOOOO%55    5<44,444442222222222222222222222222",
"22222222222222444e %OOOOOOOOOOOOOOO%55   14,,44444222222222222222222222222",
"22222222222224,44.OOOOOOOOOOOOOOOOOOOO% %:44414444222222222222<22222222222",
"2222222222222,,4oOOOOOOOOOOOOOOOOOOOOOO%5 1444,444422222221---<22222222222",
"2222222222222,44:OOOOOOOOOOOOOOOOOOOOOOO%%.4,1,,4442222----1e--o2222222222",
"222222222222,,4<OOOOOOOOOOOOOOOOOOOOOOOOOO5,,14,4441e--e--XXX61-2222222222",
"222222222222,4, OOOOOOOOOOOOOOOOOOOOOOOOOOOe444e,11e16XX-19XXX<-<222222222",
"222222222222,4-OOOOOOOOOOOOOOOOOOOOOOOOOOOO4ee,1e,,,169Xe9w9X66X-222222222",
"22222222222,,4.OOOOOOOOOOOOOOOOOOOOOOOOO444,,111o,11,1X919w9XX66-o22222222",
"22222222222,415OOOOOOOOO%OOOOOOOOOOO4444,,eeo*<,ee11ee6X16XXXX91<-22222222",
"22222222224,4oOOOOOOOOOOOOOOOOOOO144,,1--*o***oe1o41111<-666X6,-X-<2222222",
"2222222222,,4.OOOOOOOOOOOOOOO,-<e1,e-o***oo**..-,--111-e99-1669X9--2222222",
"2222222224,,4:OOOOOOOOOO%Oe---,1-o*.**<*o......oee-,e1,1X9Xe99---<-<222222",
"2222222224,14:OOOOOOOOO4.1e,e-**.**o**:......*.*-,o,1-11X9Xe---1----222222",
"22222222441e4 OOOOO44,,1,--o*.***..:...:..<o....<e--11-11---1<-1,1<-222222",
"22222222444,, OOO1141<,e4.***..::::..*....oo****o1eo,1---1-1,,1-e---<22222",
"222222224>44,e1<-e14*we14o.:;:::...:.o.:.*o*o<<o.o1--11o1111e11e,11oe22222",
"22222222*#@>4.-o-11,<X,,11:::........:*:o*<*ooo*.*e-o,11-1111,,1-<---o2222",
"2222222237#@>,-<1114,461-4...:...::...*.-o-oo*o.**-,*1111-,11-<*<1-1<-2222",
"22222222777#@>e111,X4Xw61,o:::;:.....:**o...*****e,4-4,,11--*<-o-e<<<-o222",
"2222222@7777#8-e119946,1111..:....;.....:.**.o14444441--<*<-<-e-o<1-1oe222",
"222222@777777+0114X414X96-4*:.::;.*..:.*..-,44444,1--1<-<<-eoo<<*o11o9e<22",
"23#7777#77777##--4,wX49641,<:;;::.:..**-444444,e-111-1-<-oo<<*-e-<<-<e<-22",
"*77#7777777777#8e11X,446w,e,.:::::.<e44444,,--1e1-,-1----o*<e-o-o.o11eo-o2",
"*77#77777777777-114,X619X,-4....o,44444,1-11-,11---e1--<---o<o.*e--<o<*--2",
"*77##77777777777e14Xw64146e,1e,44444,1e111e111-1-,<,11o<<e**o--e-<*oe99<-2",
"*7###77777777777-1,116,1w9,<44444,1-ee,e,e1-1-1111---*<9<<----<*o-<<eX6<11",
"27###77777777777-114Xw6,X4444,,e111,1,11-11-,11---1-119w9--o*o<<-----1111-",
"277#7777777777777ee,X64444,1e11,e,e1e-11e,11------111<X99<-<<<-<-<-11--e22",
"*7#77777777777777e1,444,11,1,e1111111,1,-1-1-,-,,1-o1e6XX-<<<-<--1e--1e222",
"o7#77777777777777-1e,ee111-1,111,e,,,-1-1-11,1-----1<1<X<o-<--1---1e--2222",
"37#777777777777777111,<,11111111,11ee11-,,1--11e1-11e<----11---11e66222222",
"7##777777777777777--111e1,-,e,11-1111,,1-e11,,,-1----<--1---1ee-X222222222",
"777777777777777777-11111,11,111,-,1,e1e,,,,,,1---e---1---16662222222222222",
"8&&7777777777777777ee111,1-<11,111--11,,,11-----------ee622222222222222222",
"222o00&&&&&&777#77&ee11---,1,11e-e1--1,1-1-e-------e1eX2222222222222222222",
"2222222oo0==&&&&&&=0111---11-e1-1-,11--e---e--<-ee-X2222222222222222222222",
"2222222222220=====00e111e-11111,eeee-1-1----e1e<o2222222222222222222222222",
"22222222222222200002e111e--,11e-1-1----<-ee-<00222222222222222222222222222",
"22222222222222222222-11,,,11ee11-e--<e-e-222222222222222222222222222222222",
"222222222222222222222e1111111--<<-e-e<222222222222222222222222222222222222",
"222222222222222222222111-e--<-eee--X22222222222222222222222222222222222222",
"222222222222222222222-1e<<--e-<2222222222222222222222222222222222222222222",
"2222222222222222222222-1-e<--222222222222222222222222222222222222222222222",
"2222222222222222222222222o222222222222222222222222222222222222222222222222",
"22222222222222222222222222222222222222222222222222222222222222222222222222"
};
